<svg xmlns="http://www.w3.org/2000/svg" xmlns:xlink="http://www.w3.org/1999/xlink" width="600" height="600" viewBox="0 0 600 600" overflow="hidden!important"><style><![CDATA[.B{fill:#f0c7b1}.C{fill:#c27b55}.D{stroke:#c27b55}.E{stroke-width:1.5}.F{fill:#2a232b}]]></style><g transform="matrix(2.549997 0 0 2.549997 45.001035 66.946458)"><path d="M100.5 100.5h-1v-1h1v1z" class="F"/><use xlink:href="#K" class="B"/><path d="M159.156 184.058c24.342 3.542 34.586 8.708 37.794 50.721H200c0-12.5-.877-26.992-4.583-35-2.196-4.746-8.195-11.779-14.86-13.722-8.239-2.403-26.837-5.308-33.733-6.923-5.528-1.296-18.242-12.069-21.643-16.35 3.36 4.704 12.791 15.605 21.054 18.46 3.953 1.366 7.245 1.988 12.921 2.814zm-105.39-2.814c8.263-2.854 17.693-13.756 21.054-18.46-3.4 4.28-16.114 15.054-21.643 16.35-6.896 1.615-25.494 4.619-33.733 7.022-6.665 1.942-12.664 8.876-14.86 13.622-3.706 8.008-4.583 22.5-4.583 35h3.05c3.188-41.744 13.475-47.183 37.794-50.721 5.675-.825 8.968-1.447 12.921-2.813z" fill="#ffe4d6"/><path d="M95.646 197.62l-7.083-2.379c-10.449-4.009-44.395-6.607-44.395-6.607s35.754 1.419 43.644 2.779c-.458-4.767-3.017-20.004-3.017-20.004l6.409 21.057c.674 2.268 4.442 5.154 4.442 5.154zm10.799-1.342c-.089.073-.191.168-.302.268a2.27 2.27 0 0 0 .302-.268zm-10.799 1.342s2.893 2.992 4.347 3.03c1.91.051 4.828-2.899 6.151-4.104-1.265.957-4.159 1.391-5.31 1.436-1.33.051-5.188-.362-5.188-.362zm21.018-7.519c-1.545.248-4.386.789-4.386.789l2.287-14.89c-.646 3.071-4.474 16.211-8.12 20.278 1.91-1.616 6.158-2.391 8.324-2.704 10.236-1.484 10.232-1.483 41.062-4.94 0 0-29.071-.155-39.167 1.467z" fill="#e1ac8f"/><use xlink:href="#K" fill="none" class="D E"/><path d="M124.272 162.248c-.028-.175-.048-.349-.051-.515-.094-7.38 1.819-22.721 3.098-32.078-15.699-1.984-38.937-1.975-54.637.016 1.279 9.359 3.19 24.687 3.094 32.062a3.11 3.11 0 0 1-.03.367c3.825 3.586 7.667 6.528 11.055 8.151 5.312 2.546 21.035 2.427 26.401 0 3.411-1.541 7.254-4.439 11.07-8.003z" fill="url(#J)"/><path d="M128.857 237.978H70.72v-56.183c22.25 4.699 36.88 4.337 58.138 0v56.183z" fill="#f3f1f3"/><path d="M107.44 237.709c-2.775 0-10.727.208-16.512-.23l-.01-.171c-.818-18.658 1.129-30.719 4.537-39.288l.048-.123-.093-.093c-.905-.904-2.425-1.935-4.034-3.025s-3.275-2.221-4.336-3.246c.625-.732 1.395-1.454 2.348-2.201.245-.125 1.162-.843 5.974-4.971l.362-.31c.818-.178 2.138-.293 3.738-.293 2.183 0 4.731.221 6.512.563 1.561 1.458 3.451 5.329 4.158 7.17-.976 2.291-2.128 3.129-3.717 4.284-.774.563-1.652 1.201-2.652 2.112l-.083.075.021.111c4.026 20.31 4.027 25.054 4.027 29.642.001 2.021.001 6.609.339 9.985a14.9 14.9 0 0 1-.627.009z" fill="#131111"/><path d="M110.35 191.495c-.754-1.995-2.71-5.93-4.28-7.359-2.876-.563-7.983-.843-10.47-.24-.108.088-6.248 5.383-6.31 5.26-.906.708-1.788 1.504-2.52 2.39 2.061 2.076 6.655 4.556 8.5 6.4-3.65 9.18-5.33 21.59-4.55 39.38.01.11.01.23.02.34 6.756.52 16.55.331 17.55.223-1.16-11.307 1.438-10.455-4.39-39.853 3.068-2.795 4.965-2.996 6.45-6.541zm-5.25 19.04c-.021-.05-.04-.1-.051-.13 2 10.55 1.38 18.632 2.891 26.972-4.736-.318-12.014-.052-16.771-.052.369-7.198 1.188-31.684 4.74-39.74.17-.046.339-.084.509-.125l-1.032 34.736 2.747-35.066a1.23 1.23 0 0 0 .06-.008l1.801 32.605.417-32.734c.026.001.051-.001.077 0l4.199 36.355-2.3-36.137a11.06 11.06 0 0 1 .942.233c.03 0 .07.01.1.03.104 1.002.936 8.402 1.671 13.061zm-.881-13.809c-2.774-1.251-6.363-1.026-9.129.24-1.681-1.813-4.08-3.077-7.53-5.391a51.98 51.98 0 0 1 2.21-1.81c.08 0 3.48-2.771 3.54-2.83.92-.84 1.74-1.79 2.52-2.62 2.93-.12 7.23.02 9.82.14 1.5 1.876 2.931 4.696 4.01 6.94-1.961 2.871-3.901 4.15-5.441 5.331z"/><path d="M78.196 213.077c-11.534-40.071-6.325-29.581-9.399-45.32 2.028-4.813 3.958-10.44 5.042-11.598l.08-.086c2.292 24.007 8.958 13.636 23.784 27.722-8.475 5.654-16.331 20.332-19.507 29.282zm52.997-45.319c-1.448-3.702-4.077-9.127-5.215-10.331 1.424 20.678-15.146 16.551-24.35 26.2 8.812 5.713 17.173 20.66 20.172 29.455 13.12-43.514 6.05-24.409 9.393-45.324z" fill="#f3f1f4"/><path d="M125.801 156.967c0 5.137-.42 9.162-1.262 10.339-2.443 5.809-13.103 9.853-16.39 11.51-2.495 1.227-4.942 2.809-6.83 4.85 3.813 2.476 5.705 3.383 12.93 14.44 4.246 7.109 6.539 12.448 7.561 15.64 13.378-44.331 6.222-24.978 9.59-46.01-1.586-4.086-4.599-9.851-5.599-10.769zm3.648 19.528c-1.957 18.078-3.491 14.485-7.74 34.181-2.716-8.644-11.075-22.913-19.43-27.091 3.937-2.957 5.031-3.131 9.729-5.279 14.396-6.42 14.985-12.385 14.138-20.271 1.207 1.423 3.125 6.161 4.692 9.521-.859 3.146-1.249 7.638-1.389 8.939zm-50.25-4.599c-4.408-3.649-3.16-8.162-5.189-16.215-.902 1-3.146 6.632-5.42 12.055.557 2.796.681 7.389.76 8.84.559 12.202 1.75 12.765 8.83 37.16 3.031-8.905 11.558-24.37 20.24-30.009-6.931-6.326-15.655-8.728-19.221-11.831zm5.46 25.509c-2.221 3.666-4.517 7.48-6.37 13.28-4.442-20.269-5.999-16.964-7.73-34.16-.32-2.971-.617-6.027-1.4-8.96 1.638-3.588 3.981-10.281 4.731-10.995 1.366 7.078.066 13.462 5.669 16.995 2.621 1.996 11.104 5.32 17.52 10.36-3.891 2.31-5.985 3.671-12.42 13.48z" fill="#cfc8d7"/><path d="M120.319 209.824l-1.209-2.654s9.148-28.175 10.743-36.225c.912 8.354-9.534 38.879-9.534 38.879zm-41.44-1.103l1.436-3.259s-8.573-26.467-10.168-34.517c-.912 8.354 8.732 37.776 8.732 37.776z" fill="#e1e0e1"/><path d="M124.787 195.605c7.065-20.834 2.756-22.551 6.305-29.469.134-.261 1.396 1.046 1.533 1.64 1.306 5.658 53.349 17.338 54.994 18.598 1.456 1.058 5.65 3.137 5.65 3.137 4.937 9.07 7.762 10.698 9.15 34.984.13 3.083-.061 11.801-.061 14.141l-85.559-.676c.205-7.791 1.2-21.81 7.988-42.355zm-49.574 0c-7.065-20.834-2.756-22.551-6.305-29.469-.134-.261-1.396 1.046-1.533 1.64-1.306 5.658-53.349 17.338-54.994 18.598-1.456 1.058-5.65 3.137-5.65 3.137-4.937 9.07-7.762 10.698-9.15 34.984-.13 3.083.061 11.801.061 14.141l85.559-.676c-.205-7.791-1.2-21.81-7.988-42.355z" fill="#c33131"/><path d="M130.307 190c-4.552 16.387-10.771 31.116-13.506 47.96-.89-.007 1.491-22.695 7.986-42.354 7.065-20.834 2.756-22.551 6.305-29.469.077-.15-.619 1.976-.223 2.432-.146 7.727 1.756 13.703-.562 21.431zm-60.614 0c4.552 16.387 10.771 31.116 13.506 47.96.89-.007-1.491-22.695-7.986-42.354-7.065-20.834-2.756-22.551-6.305-29.469-.077-.15.619 1.976.223 2.432.146 7.727-1.756 13.703.562 21.431z" fill="#b41b1b"/><path d="M152.436 186.031s-2.284 2.561-8.636 6.923c5.313-5.885 7.761-8.249 7.761-8.249l.875 1.326zm2.175 11.875l-1.528-1.367c-4.538 13.781-7.571 20.587-12.828 36.618 7.544-14.326 9.344-19.412 14.356-35.251zM48.439 184.705s2.447 2.364 7.761 8.249c-6.352-4.362-8.636-6.923-8.636-6.923l.875-1.326zm11.306 48.452c-5.257-16.031-8.29-22.837-12.828-36.618l-1.528 1.367c5.012 15.839 6.812 20.925 14.356 35.251z" fill="#a40808"/><path d="M179.409 219.335c0-11.596 3.11-18.351 9.615-28.142.608.372.931.543 1.345.875-6.917 8.583-8.291 16.591-10.96 27.267zm-38.097 11.368l12.107-34.388c-1.15-.351-8.671-2.985-9.819-3.346.41 1 3.113 1.822 7.822 4.709 0 .001-5.089 15.404-10.11 33.025zm8.221-46.126l-6.664 8.328c3.388-2.67 5.748-5.644 8.691-8.2l-14.721-12.089c3.324 3.572 12.694 11.961 12.694 11.961zm52.54 54.057l.286.002.061-14.141c-1.389-24.286-4.214-25.914-9.15-34.984 0 0-4.194-2.079-5.65-3.137-1.334-1.021-38.794-9.922-52.49-15.88 16.011 10.971 46.282 15.027 55.24 21.574 4.332 3.167 10.165 30.269 11.703 46.566zM9.613 192.037c.542-.383.619-.366 1.168-.729 6.505 9.791 9.809 16.431 9.809 28.026-2.668-10.675-4.51-19.016-10.977-27.297zm38.965 5.642c4.709-2.887 7.412-3.709 7.822-4.709-1.148.36-8.669 2.995-9.819 3.346l12.107 34.388c-5.021-17.622-10.11-33.025-10.11-33.025zm14.582-25.063c-4.21 3.564-10.727 8.721-14.721 12.089 2.943 2.557 5.304 5.53 8.691 8.2l-6.664-8.328s9.371-8.389 12.694-11.961zM9.631 192.068c8.958-6.547 39.229-10.604 55.24-21.574-13.696 5.958-51.156 14.858-52.49 15.88-1.456 1.058-5.65 3.137-5.65 3.137-4.937 9.07-7.762 10.698-9.15 34.984-.13 3.083.061 11.801.061 14.141l.286-.002c1.537-16.297 7.37-43.399 11.703-46.566z" fill="#d24a4a"/><path d="M132.246 166.374c-.049-.293-.443-.634-.738-.657s-.432.458-.567.722c-3.549 6.918.414 8.333-6.651 29.167-6.788 20.545-7.584 34.862-7.787 42.653l85.857.377c0-2.34.489-11.058.359-14.141-1.389-24.286-4.313-26.113-9.25-35.184 0 0-4.394-2.179-5.85-3.236-4.889-3.742-.59.023-22.03-6-17.576-5.135-18.525-6.577-24.899-8.35-1.288-.369-4.057-.822-6.95-2.851-.265-.185-1.399-1.93-1.494-2.5zm-15.272 70.936c3.729-23.564 6.085-29.73 11.296-47.274 3.522-11.104 1.576-17.408 3.254-22.54.088-.268.467-.282.571-.017 2.434 6.214 9.238 7.656 18.834 17.047-5.813 5.813-7.309 7.38-8.06 8.38.864.438 5.582 2.229 9.9 3.9-.245.767-13.415 38.02-13.57 38.52 10-21.578 11.292-28.211 14.22-39.01-.812-.612-7.892-3.212-9.09-3.64 4.274-4.424 5.51-5.396 7.53-7.971 1.622 0-15.874-13.318-16.73-14.211.462.364 2.752 1.391 3.01 1.491 14.682 5.166 3.065 2.829 35.2 12.001 3.072.781 7.355 1.567 10.53 1.879.218.02 5.395 2.727 8.35 3.97-7.189 7.475-11.797 17.133-12.81 29.5 3.219-12.666 4.951-19.29 13.14-28.819 7.62 15.422 6.755 13.195 9.23 47.71-20.612-.813-52.22-.999-84.805-.916zm-50.713-68.435c-2.894 2.028-5.662 2.481-6.95 2.851-6.374 1.772-7.323 3.215-24.899 8.35-21.44 6.023-17.142 2.258-22.03 6-1.456 1.058-5.85 3.236-5.85 3.236-4.937 9.07-7.861 10.897-9.25 35.184-.13 3.083.359 11.801.359 14.141l85.857-.377c-.203-7.791-.999-22.108-7.787-42.653-7.065-20.834-3.103-22.249-6.651-29.167-.136-.264-.271-.745-.567-.722s-.689.364-.738.657c-.096.569-1.23 2.314-1.494 2.5zm-68.04 69.351c2.476-34.515 1.61-32.288 9.23-47.71 8.188 9.529 9.921 16.153 13.14 28.819-1.013-12.367-5.62-22.025-12.81-29.5 2.955-1.243 8.132-3.95 8.35-3.97 3.175-.312 7.458-1.098 10.53-1.879 32.135-9.172 20.519-6.835 35.2-12.001.258-.101 2.548-1.127 3.01-1.491-.856.893-18.353 14.211-16.73 14.211 2.021 2.575 3.256 3.547 7.53 7.971-1.198.428-8.278 3.027-9.09 3.64 2.928 10.799 4.22 17.432 14.22 39.01-.155-.5-13.325-37.753-13.57-38.52l9.9-3.9c-.751-1-2.247-2.567-8.06-8.38 9.596-9.391 16.4-10.833 18.834-17.047.104-.266.483-.251.571.017 1.678 5.132-.269 11.436 3.254 22.54 5.211 17.544 7.567 23.71 11.296 47.274-32.585-.083-64.193.103-84.805.916z" fill="#950000"/><path d="M47.001 83.231c-1.376-2.453-5.638-8.48-9.98-7.003-2.749.935-3.293 3.993-3.735 6.693-.588 3.591.471 10.694 1.389 13.26.881 2.467 3.533 7.23 5.264 9.045 2.13 2.225 4.775 9.324 5.194 10.061.66 1.162 1.536 2.911 4.122 2.692 2.853-.244 4.584-1.85 5.856-2.121 3.142-.666-4.529-26.242-8.11-32.627z" class="B D E"/><path d="M44.197 98.104c-.132-.581.007-1.56.142-2.504.124-.861.24-1.675.169-2.251-.267-2.154-1.773-6.249-2.757-8.467-1.132-2.554-2.963-5.77-5.262-6.599-.95-.343-1.575.067-1.938.484-.266.305-.325.665-.238.707s.285-.254.572-.535a1.3 1.3 0 0 1 1.051-.385c-.19 1.073-1.167 6.883-.744 10.845.333 3.115 1.593 5.442 1.79 5.791.029.367.077.726.148 1.075.929 4.547 4.971 9.717 6.378 11.409.259.313.531.497.598.423s-.094-.387-.353-.7c-1.388-1.679-5.391-6.831-6.289-11.218-.952-4.656 2.318-11.556 3.048-13.017.371.685.687 1.344.93 1.893a46.61 46.61 0 0 1 .619 1.479c-.429.762-3.434 6.32-2.338 10.767.406 1.641 2.235 3.755 3.447 4.333.667.32.919.797 1.209 1.349.336.64.718 1.365 1.828 1.892.225.108.429.151.61.151a1.06 1.06 0 0 0 .725-.293 11.84 11.84 0 0 1 .009.97c-.012.431.042.783.137.791s.196-.332.207-.76c.016-.526.013-1.177-.072-1.488-.248-.917-1.008-1.953-1.813-3.048-.789-1.082-1.607-2.195-1.813-3.094zm-7.247-4.031c-2.177-7.139.656-13.3 1.144-14.28.85.822 1.6 1.919 2.21 2.995-.444.858-3.263 6.483-3.354 11.285zm9.391 10.442c-1.004-.475-1.339-1.115-1.666-1.733-.293-.559-.598-1.136-1.369-1.505-.168-.081-.352-.203-.542-.343-2.486-6.263.272-9.001.963-9.562.211.766.369 1.468.439 2.031.063.517-.052 1.339-.167 2.134-.142.985-.286 2.004-.137 2.664.226.982 1.069 2.131 1.884 3.242.723.986 1.466 2.003 1.721 2.832-.108.164-.45.561-1.126.24z" class="C"/><path d="M152.736 83.231c1.377-2.453 5.639-8.48 9.98-7.003 2.75.935 3.293 3.993 3.736 6.693.588 3.591-.471 10.694-1.389 13.26-.881 2.467-3.533 7.23-5.266 9.045-2.129 2.225-4.775 9.324-5.193 10.061-.658 1.162-1.535 2.911-4.121 2.692-2.854-.244-4.584-1.85-5.857-2.121-3.142-.666 4.53-26.242 8.11-32.627z" class="B D E"/><path d="M153.727 101.196c-.805 1.096-1.564 2.131-1.813 3.048-.086.311-.088.962-.072 1.488.012.428.113.768.207.76s.148-.36.137-.791l.01-.97a1.06 1.06 0 0 0 .725.293c.182 0 .385-.043.609-.151 1.109-.526 1.492-1.252 1.828-1.892.289-.552.543-1.028 1.209-1.349 1.213-.578 3.041-2.692 3.447-4.333 1.096-4.447-1.908-10.005-2.338-10.767a46.99 46.99 0 0 1 .619-1.479 27.35 27.35 0 0 1 .93-1.893c.73 1.46 4 8.361 3.049 13.017-.896 4.387-4.9 9.539-6.289 11.218-.258.313-.418.624-.352.7s.338-.109.598-.423c1.406-1.692 5.449-6.862 6.379-11.409a9.15 9.15 0 0 0 .146-1.075c.197-.349 1.459-2.676 1.791-5.791.422-3.961-.555-9.772-.744-10.845.473-.042.814.156 1.051.385.287.281.486.577.572.535s.027-.402-.238-.707c-.363-.417-.988-.827-1.938-.484-2.299.83-4.131 4.045-5.262 6.599-.984 2.218-2.49 6.313-2.758 8.467-.072.576.045 1.39.17 2.251.135.945.273 1.924.141 2.504-.205.901-1.023 2.014-1.814 3.094zm5.707-18.409c.611-1.075 1.361-2.173 2.211-2.995.488.98 3.32 7.141 1.145 14.28-.093-4.801-2.911-10.426-3.356-11.285zm-7.164 21.488c.254-.829.998-1.846 1.721-2.832.816-1.111 1.658-2.26 1.885-3.242.148-.66.004-1.679-.137-2.664-.115-.795-.23-1.617-.166-2.134.068-.563.227-1.266.438-2.031.691.561 3.449 3.299.965 9.562a3.57 3.57 0 0 1-.543.343c-.771.369-1.074.946-1.369 1.505-.326.618-.662 1.258-1.666 1.733-.677.321-1.019-.076-1.128-.24z" class="C"/><use xlink:href="#L" class="B"/><path d="M110.152 1.982c26.994 6.338 47.097 30.814 47.052 60.039-.009 5.399-.704 10.635-2.004 15.624-.012.054-8.61 37.245-14.13 48.608-4.859 10.004-19.7 27.468-30.067 32.521-2.163 1.055-8.694 1.555-11.001 1.555s-8.837-.5-11-1.555c-10.367-5.053-25.209-22.517-30.067-32.521-5.521-11.363-14.119-48.554-14.13-48.608-1.3-4.988-1.996-10.225-2.004-15.624C42.756 32.796 62.857 8.32 89.853 1.982 61.03 6.877 39.087 32.232 39.134 62.767a62.25 62.25 0 0 0 2.004 15.623c.012.054 9.232 37.241 14.863 48.607 5.052 10.199 20.207 28.085 30.801 33.266 2.658 1.301 9.305 1.855 12.954 1.853s10.791-.552 13.447-1.853c10.594-5.182 25.748-23.066 30.801-33.266 5.631-11.366 14.852-48.553 14.862-48.607a62.25 62.25 0 0 0 2.004-15.623c.048-30.535-21.895-55.89-50.718-60.785z" fill="#e8b9a0"/><use xlink:href="#L" fill="none" class="D E"/><path d="M100.2 142.947c-2.832.144-3.644-2.753-3.644-2.753s3.931.565 6.991-.353c.001.001-.855 2.981-3.347 3.106z" fill="url(#C)"/><path d="M100.488 140.76c-1.984.1-3.765-.077-3.877-.089-.138-.014-.238-.136-.224-.272s.143-.233.274-.224c.041.003 4.096.405 6.738-.337.131-.032.271.041.309.174a.25.25 0 0 1-.173.308c-.934.262-2.018.388-3.047.44z" class="C"/><use xlink:href="#M" fill="#fff"/><use xlink:href="#M" fill="none" stroke-width=".75" class="D"/><use xlink:href="#N" fill="url(#D)"/><path d="M80.25 84.25a6 6 0 1 1-12 0 6 6 0 1 1 12 0z" fill="#7b5c33"/><path d="M70.762 87.055c.875-.072.1-.306.1-.306-.433-.233-1.248-.592-1.248-.921 0-1.031 1.414-1.299-.034-1.705-1.504-1.38 1.167-1.352 1.147-1.398-.975-2.376.299-1.071.835-1.773 1.988-2.599.554.267 1.633 0 .391-.096-.78-1.531.034-1.33.539.132.662.58.662.58.393-.077 1.008-.682 1.008-.682.749.226 1.275 1.29 1.043 1.091.368-.045.884-.221 1.286-.341 0 0 .07-.239.139-.033.917 2.661 3.284 2.47.559 3.24 0 0-.176 0 .382.442 2.71 2.164-2.102 1.495.451 2.49.104-.104-1.53.965-1.53 1.261 0 .501-1.042 1.818-1.946 1.3-.504-.288-.581.6-.877.19-.581-.803-1.742-.035-1.313-.773.634-.521-.654.204-.904.204-.828 0 1.083-2.783 3.894-.715.822.602-.864-1.433.625-1.433.149.049.104-.521.104-.682-.774-.151 1.39-.003 1.39-1.262.137.027.509-.35-1.635 0 0 0-.068-.75-.034-.886.11-.438 1.214-.298.904-.75 0-.001-.799-1.604-.799-1.604-2.573-.414-1.102-.672-2.711-.341-.076.378-3.445 1.984-3.338 2.729.1.702 2.115.938.208 2.182 2.858 5.472-2.11-.125-.035 1.226z" fill="#8a6d47"/><path d="M74.25 78.999l.171 4.393 1.837-3.993-1.523 4.123 3.227-2.985-2.985 3.226 4.124-1.523-3.992 1.839 4.392.17-4.392.17 3.992 1.839-4.124-1.523 2.985 3.226-3.227-2.985 1.523 4.123-1.837-3.993-.171 4.393-.171-4.393-1.838 3.993 1.522-4.123-3.226 2.985 2.985-3.226-4.124 1.523 3.992-1.839-4.39-.17 4.39-.17-3.992-1.839 4.124 1.523-2.985-3.226 3.226 2.985-1.522-4.123 1.838 3.993.171-4.393z" fill="#5c3d14"/><path d="M75.046 80.317l-.539 3.315 1.981-2.711-1.766 2.857 2.87-1.748-2.725 1.964 3.319-.515-3.268.771 3.266.794-3.317-.538 2.712 1.982-2.858-1.765 1.748 2.869-1.964-2.725.516 3.319-.771-3.27-.795 3.264.539-3.315-1.984 2.711 1.768-2.857-2.869 1.748 2.725-1.964-3.319.516 3.269-.771-3.264-.793 3.315.537-2.712-1.982 2.858 1.765-1.747-2.869 1.964 2.725-.516-3.318.772 3.27.792-3.266z" fill="#4d3009"/><path d="M76.5 84.25a2.25 2.25 0 1 1-4.5 0 2.25 2.25 0 1 1 4.5 0z" opacity=".9"/><g fill="#fff"><path d="M71.887 88.561c-.331.332-.985.215-1.46-.261s-.593-1.129-.261-1.461.985-.214 1.46.261.593 1.129.261 1.461z" opacity=".7"/><path d="M79.056 83.068c-.496.496-1.697.1-2.682-.886s-1.382-2.187-.886-2.683 1.697-.1 2.682.886 1.382 2.187.886 2.683z" opacity=".9"/></g><path d="M53.294 83c.809 10.899 11.637 23.583 20.506 22.236 10.498.106 20.864-7.868 20.864-22.305s-5.087-26.528-21.127-26.528c-11.5-.001-20.243 12.16-20.243 26.597zm8.458-.477c-.506-2.285 5.191-3.973 12.711-3.051s12.738 5.524 12.052 7.844c-.38 1.286-10.639 3.245-14.253 2.847-3.664-.405-9.288-2.123-10.51-7.64z" class="B"/><path d="M72.262 90.163c3.614.398 13.873-1.561 14.253-2.847.687-2.32-4.534-6.921-12.052-7.844-6.46-.792-11.563.344-12.556 2.128.898-6.4 7.7-11.397 15.987-11.434 8.911-.037 16.148 5.676 16.172 12.765s-7.185 12.862-16.095 12.902-16.149-5.676-16.173-12.764c0-.105.016-.208.019-.313 1.33 5.327 6.834 7.008 10.445 7.407z" fill="url(#F)"/><use xlink:href="#N" fill="url(#G)"/><path d="M62.148 77.417c4.208-1.978 9.35-2.16 13.838-1.005 2.404.561 4.965 1.285 7.063 2.638 1.945 1.135 3.525 2.5 5.002 4.19-1.342-1.701-2.773-3.118-4.623-4.27-2.276-1.416-4.769-2.294-7.364-2.916-4.586-1.126-9.722-.87-13.916 1.363z" class="C"/><path d="M62.769 78.02c.88-.352 4.065-1 5.456-1.066 1.687-.082 5.073.125 6.735.424 3.374.608 9.251 2.483 11.678 7.184.746 1.445.074 2.456-.123 2.675.3-2.426-4.838-6.746-12.052-7.604-7.52-.894-13.217.743-12.711 2.958 1.222 5.348 6.846 7.013 10.51 7.405 4.099.439 11.684-1.539 12.686-1.753-1.999 1.009-7.524 2.095-9.767 2.303-.744.07-2.24.104-2.986.085-5.949-.158-10.169-3.175-11.729-7.26-1.002-2.626.094-4.469 2.303-5.351z"/><use xlink:href="#O" fill="url(#E)"/><path d="M131.75 84.249a6 6 0 1 1-12 0 6 6 0 1 1 12 0z" fill="#7b5c33"/><path d="M122.258 87.056c.879-.076.105-.305.105-.305-.434-.234-1.254-.592-1.254-.926 0-1.031 1.418-1.295-.023-1.705-1.512-1.377 1.16-1.348 1.137-1.395-.973-2.379.305-1.072.844-1.775 1.98-2.596.551.27 1.629 0 .387-.094-.785-1.529.035-1.33.539.135.656.58.656.58.398-.076 1.008-.68 1.008-.68.75.223 1.277 1.289 1.043 1.09.375-.047.891-.223 1.289-.34 0 0 .07-.24.141-.035.914 2.66 3.281 2.473.563 3.24 0 0-.176 0 .375.439 2.707 2.168-2.098 1.494.457 2.49.105-.1-1.535.967-1.535 1.266 0 .498-1.043 1.816-1.945 1.295-.504-.287-.586.604-.879.193-.574-.803-1.746-.035-1.313-.773.633-.521-.656.205-.902.205-.832 0 1.078-2.783 3.891-.715.82.598-.867-1.436.633-1.436.141.047.105-.521.105-.68-.785-.152 1.383-.006 1.383-1.266.141.029.516-.346-1.629 0 0 0-.07-.75-.035-.885.105-.439 1.207-.299.902-.75l-.797-1.605c-2.578-.41-1.102-.668-2.719-.34-.07.381-3.445 1.986-3.34 2.73.105.703 2.121.938.211 2.18 2.858 5.481-2.11-.121-.036 1.233z" fill="#8a6d47"/><path d="M125.75 78.999l.176 4.395 1.828-3.996-1.523 4.125 3.234-2.988-2.988 3.229 4.125-1.523-3.996 1.84 4.395.17-4.395.17 3.996 1.84-4.125-1.523 2.988 3.229-3.234-2.988 1.523 4.125-1.828-3.996-.176 4.391-.176-4.395-1.84 3.996 1.523-4.125-3.223 2.988 2.988-3.229-4.125 1.523 3.996-1.84-4.395-.17 4.395-.17-3.996-1.84 4.125 1.523-2.988-3.229 3.223 2.988-1.523-4.125 1.84 3.996.176-4.391z" fill="#5c3d14"/><path d="M126.547 80.317l-.539 3.316 1.98-2.713-1.77 2.859 2.871-1.752-2.719 1.969 3.316-.516-3.27.768 3.27.797-3.316-.539 2.707 1.98-2.859-1.764 1.746 2.871-1.957-2.725.516 3.316-.773-3.267-.797 3.264.539-3.316-1.98 2.713 1.77-2.859-2.871 1.752 2.719-1.969-3.316.516 3.27-.768-3.27-.797 3.316.539-2.707-1.98 2.859 1.764-1.746-2.871 1.957 2.725-.516-3.316.773 3.27.797-3.267z" fill="#4d3009"/><path d="M128 84.249a2.25 2.25 0 1 1-4.5 0 2.25 2.25 0 1 1 4.5 0z" opacity=".9"/><g fill="#fff"><path d="M123.383 88.562c-.328.328-.984.217-1.453-.264-.48-.475-.598-1.125-.258-1.459.328-.328.984-.211 1.453.264.48.474.598 1.125.258 1.459z" opacity=".7"/><path d="M130.555 83.065c-.492.498-1.699.105-2.684-.885-.984-.984-1.383-2.186-.879-2.678.492-.498 1.688-.105 2.672.885.996.985 1.383 2.186.891 2.678z" opacity=".9"/></g><path d="M126.063 56.402c-16.04 0-21.127 12.091-21.127 26.528s10.366 22.412 20.864 22.305c8.869 1.347 19.697-11.337 20.506-22.236.001-14.436-8.743-26.597-20.243-26.597zm1.276 33.761c-3.614.398-13.873-1.561-14.253-2.847-.687-2.32 4.534-6.921 12.052-7.844s13.217.767 12.711 3.051c-1.222 5.517-6.846 7.235-10.51 7.64z" class="B"/><path d="M127.339 90.163c-3.614.398-13.873-1.561-14.253-2.847-.687-2.32 4.534-6.921 12.052-7.844 6.46-.792 11.563.345 12.556 2.128-.898-6.4-7.7-11.397-15.987-11.434-8.911-.037-16.148 5.676-16.172 12.765s7.185 12.862 16.095 12.902 16.149-5.676 16.173-12.764c0-.105-.016-.208-.019-.313-1.331 5.327-6.835 7.008-10.445 7.407z" fill="url(#H)"/><use xlink:href="#O" fill="url(#I)"/><path d="M137.452 77.417c-4.208-1.978-9.35-2.16-13.838-1.005-2.404.561-4.965 1.285-7.063 2.638-1.945 1.135-3.525 2.5-5.002 4.19 1.342-1.701 2.773-3.118 4.623-4.27 2.276-1.416 4.769-2.294 7.364-2.916 4.587-1.126 9.723-.87 13.916 1.363z" class="C"/><path d="M136.832 78.02c-.88-.352-4.065-1-5.456-1.066-1.687-.082-5.073.125-6.735.424-3.374.608-9.251 2.483-11.678 7.184-.746 1.445-.074 2.456.123 2.675-.3-2.426 4.838-6.746 12.052-7.604 7.52-.894 13.217.743 12.711 2.958-1.222 5.348-6.846 7.013-10.51 7.405-4.099.439-11.684-1.539-12.686-1.753 1.999 1.009 7.524 2.095 9.767 2.303.744.07 2.24.104 2.986.085 5.949-.158 10.169-3.175 11.729-7.26 1.002-2.626-.094-4.469-2.303-5.351z"/><path d="M141 113.974c.035 22.622-18.292 40.994-40.938 41.025-22.642.037-41.028-18.273-41.063-40.9-.035-22.62 18.292-41.064 40.937-41.1s41.031 18.35 41.064 40.975z" fill="url(#A)"/><path d="M137.5 53.999c0 20.711-16.789 37.5-37.499 37.5S62.5 74.71 62.5 53.999s16.79-37.5 37.501-37.5 37.499 16.789 37.499 37.5z" fill="url(#B)"/><path d="M54 74.189c9.954-9.974 16.761-5.915 30.589-3.264.845.162 6.32 1.539 5.31 3.469-.483.924-2.036.814-2.903.798-13.688-.256-20.344-9.995-32.996-1.003zm92 0c-9.953-9.974-16.761-5.915-30.589-3.264-.846.162-6.32 1.539-5.311 3.469.483.924 2.036.814 2.903.798 13.688-.256 20.345-9.995 32.997-1.003z" class="F"/><path d="M91.115 115.499c-.878 2.064 5.934 4.292 8.519 4.429 2.8.147 10.646-2.9 9.316-4.992-1.399-2.195-6.643-.286-8.906-.286-2.252-.001-7.753-1.905-8.929.849z" fill="#e1ac8f"/><path d="M101.857 117.058c-.23-.759 1.876-1.584 2.657-1.694 1.101-.16 3.36.802 3.158 1.592-.184.698-2.148-.533-2.86-.429-.734.107-2.737 1.242-2.955.531zm-6.883-.247c.968 0 2.404.623 2.668.074.315-.655-2.139-1.461-2.86-1.372-.596.07-2.733 1.315-2.439 1.839.274.481 1.355-.541 2.631-.541z" class="C"/><path d="M100.089 111.999c.607 0 1.742-.74 1.792-2.23.201-6.008-.956-23.833-1.792-23.77-.78.059-2.267 17.637-1.948 23.77.079 1.502 1.263 2.23 1.948 2.23z" fill="#fff5ef" opacity=".2"/><g class="F"><path d="M100 18.13h0 0 0z"/><path d="M100 18.13h0 0 0z"/><path d="M44.974 94.895c-2.423-8.815-3.728-16.533-5.54-24.585l.083-.019c-.686-1.689-3.162-15.06-3.185-15.204-2.525-17.77 4.993-18.784 4.84-26.198 3.165 1.585 6.242.799 9.019-1.365-2.918-1.499-1.997-1.736-5.872-4.095 2.731-.472 4.326.165 6.646.454-1.983-1.983-5.875-6.028-8.404-5.492l-.165-.354c3.661-2.857 8.548 3.091 12.954 1.48C55.483 3.144 79.417-.256 85.242-2.689c7.755-2.951 15.856-9.441 21.553-10.021-3.225 3.241-5.2 8.449-5.347 12.358 4.698-4.486 5.03-4.355 12.151-12.264 0 6.364-1.763 7.163-4.051 10.898 6.211-4.07 13.955-15.489 25.881-17.235l.131.37c-4.298 2.532-7.624 6.804-9.898 12.708 2.257-2.726 5.451-5.683 8.986-6.218l.133.369c-2.215 1.325-6.554 5.742-7.547 13.138 4.381-4.893 11.35-8.948 16.134-10.48l.187.346c-4.392 3.573-6.153 9.828-7.146 15.146 3.08-4.58 4.872-5.624 8.747-7.548-1.247 1.865-1.166 1.539-2.158 3.566 2.396 6.123 10.313 6.361 11.666 17.059 1.63-1.424 2.277-1.781 4.151-3.092l.282.272c-1.408 2.187-2.569 6.06-3.342 8.652 2.78-2.123 7.073-3.687 10.096-4.778l.211.328c-2.551 2.593-5.648 6.546-6.162 10.834 1-.592 1.048-.524 2.35-1.466 0 3.081.105 2.688.127 4.105 1.257-1.125 1.45-1.282 2.276-2.181-.183 32.362-1.845 25.912-6.317 48.466-.784 3.963-2.171 10.883-3.061 14.207l-6.049 1.039c1.87-22.394-.093-17.512 1.267-31.604 2.012-20.779-14.804-37.812-37.025-32.237-4.496 1.128-22.44 1.127-26.934 0-24.547-6.163-33.391 8.18-36.026 33.278-1.291 12.318-1.607 8.161.267 30.563l-5.801-.994z"/></g><path d="M162.376 34.359c-.021-1.418-.127-1.024-.127-4.105-1.302.941-1.35.874-2.35 1.466.514-4.288 3.611-8.241 6.162-10.834l-.211-.328c-3.022 1.092-7.315 2.655-10.096 4.778.772-2.592 1.934-6.465 3.342-8.652l-.282-.272c-1.874 1.311-2.521 1.668-4.151 3.092-1.353-10.697-9.27-10.936-11.666-17.059.992-2.027.911-1.701 2.158-3.566-3.875 1.924-5.667 2.968-8.747 7.548.993-5.318 2.755-11.573 7.146-15.146l-.187-.346c-4.784 1.532-11.753 5.587-16.134 10.48.993-7.396 5.332-11.813 7.547-13.138l-.133-.369c-3.535.535-6.729 3.493-8.986 6.218 2.274-5.904 5.601-10.176 9.898-12.708l-.131-.37c-11.926 1.746-19.67 13.165-25.881 17.235 2.288-3.735 4.051-4.535 4.051-10.898-7.121 7.909-7.453 7.778-12.151 12.264.146-3.909 2.122-9.118 5.347-12.358-5.696.58-13.797 7.069-21.553 10.021C79.417-.256 55.483 3.144 55.35 19.518c-4.406 1.611-9.293-4.337-12.954-1.48l.165.354c2.529-.537 6.421 3.508 8.404 5.492-2.319-.289-3.915-.926-6.646-.454 3.875 2.359 2.954 2.596 5.872 4.095-2.777 2.164-5.854 2.95-9.019 1.365.153 7.415-7.366 8.429-4.84 26.198.023.144 2.499 13.515 3.185 15.204l-.083.019c1.812 8.052 3.117 15.771 5.54 24.585l.026.003c-.661-16.442-11.02-39.816-4.941-54.788C40.852 38.156 43.92 33 43.92 33s9.627-1.264 10.08-5c0 0-2-1-3-2 2 1 2-2 4-1 0-2-3-1-3-3 2 0 4 0 6 2-1-5 0-10 4-13C72 3 85 4 95-4c-1 5-2 10-2 15 6-3 8-9 13-13 1 4-1 9-1 13 3-7 7-14 16-16-4 4-4 10-4 15 0-4 4-6 5-9v12c2-6 6-9 11-11-4 4-3 8-4 13 3-3 7-4 10-7 3 6 1 11 1 17 1-5 6-8 9-12 1 5 1 10 0 15 1-3 3-5 4-8 0 4.86-.668 9.062-1.98 13.142 1.255-1.452 3.304-2.111 3.98-4.142v12.027c.58-1.192 2.29-1.608 3-3.027-.854 3.413-.254 6.103-.059 9.302.371-1.96 2.258-3.162 2.94-4.967l.118-2.335c.229.912.135 1.664-.118 2.335-.912 17.771-2.593 35.516-6.256 52.628l.648-.111c.89-3.324 2.276-10.244 3.061-14.207 4.473-22.554 6.135-16.104 6.317-48.466-.825.899-1.018 1.056-2.275 2.18z" fill="#3a353a"/><path d="M167.779 19.695c-4.949.834-8.406 2.438-11.05 4.25.385-1.005 2.193-6.67 4.14-9.05-2.99 1.333-4.72 2.763-5.72 3.51 0-1.032-.398-2.224-.59-2.84-.189-.515-.348-1.117-1.271-2.62-5.171-7.296-5.494-4.244-9.729-9.83.772-1.811 1.889-3.572 3.29-5.03-3.908.555-5.965 2.075-8.44 4.51-.04.04-.07.08-.1.12 1.551-6.126 4.59-11.437 10.56-13.43-7.384-.268-16.525 5.192-21.12 10.64 1.984-6.381 4.646-9.421 8.601-12.25-2.846-.421-5.635.742-7.841 2.58 2.541-4.397 6.317-7.899 9.351-9.53-.431-.01-.94-.04-1.5 0-.777-.199-5.479.566-7.16 1.29-8.329 3.252-14.389 10.822-16.99 13.28 1.916-3.098 2.01-5.298 1.66-8.52-.655.563-11.615 11.055-11.75 11.19.777-4.309 2.245-6.937 5.02-10.79-4.947-.926-17.332 7.217-25.01 9.39-8.044 2.179-28.004 6.723-27.09 22.7-4.295.819-10.584-6.077-13.88-.29 2.646-1.57 6.151 2.21 8.59 4.37-1-.163-4.343-.948-5.96.13 1.894.735 3.55 2.932 5.89 4.1.03.01.06.02.09.04-2.139 1.128-4.667 2.034-6.99 1.39-.35-.1-.58-.16-.58-.17l-.87-.38h-.01l-.01-.01-.4-.21c.695 5.608-7.817 10.155-6.88 22.02.385 7.301 4.949 29.508 10.686 44.566l.483.144c-2.392-8.626-3.777-16.74-5.569-24.701-.156 0-3.073-15.044-3.1-15.21-2.506-17.631 4.994-18.91 4.85-25.84 3.121 1.561 6.532.436 9.18-1.73-3.118-1.551-2.453-1.988-5.68-3.95 2.163-.374 4.803.483 6.62.6-2.346-2.346-6.299-6.51-8.98-5.94 3.568-2.785 8.497 3.271 13.03 1.46 0-16.383 23.723-19.635 29.77-22.16 7.271-2.766 16.283-9.476 20.939-9.95-2.44 2.458-5.02 7.901-5.02 12.58 4.834-4.638 5.31-4.615 12.16-12.22 0 6.014-2.247 7.088-4.431 10.97 6.414-3.698 14.179-15.828 26.49-17.63-5.154 3.037-8.435 8.325-10.41 13.97 2.352-3.059 5.8-6.53 9.63-7.11-2.009 1.202-6.861 5.782-7.72 13.93 4.345-5.114 11.586-9.346 16.47-10.91-4.605 3.748-6.368 10.371-7.39 16.22 1.687-2.573 3.357-4.897 5.97-6.54.011-.01.03-.02.04-.02 1.029-.699.76-.509 2.521-1.39-.669 1-.731.87-1.79 3.04 2.426 6.377 10.523 6.413 11.729 17.47 1.857-1.647 2.441-1.944 4.42-3.33-1.542 2.394-2.784 6.768-3.55 9.32 2.905-2.485 8.279-4.33 10.54-5.15-3 3.05-5.913 7.096-6.26 11.36.614-.413 1.394-.74 2.39-1.46 0 2.724.13 2.36.13 4.16.526-.481 1.72-1.51 2.271-2.11-.196 31.716-1.88 25.564-6.311 47.91-1.658 8.376-2.533 12.25-3.081 14.283l.428-.087c3.584-10.751 10.737-35.042 10.414-47.616-.033-4.7-1.059-14.5-1.11-15.5-.021.018-2.084 1.97-2.11 1.97 0-.511-.21-2.685-.21-3.87-.353.271-1.095.778-2.09 1.36 1.379-4.163 3.478-6.75 7.4-11.449z"/><path d="M100 18.13h0 0 0z" fill="#26120b"/></g><defs><radialGradient id="A" cx="100" cy="114" r="41" xlink:href="#P"><stop stop-opacity=".5" stop-color="#ffe4d6" offset="0"/><stop stop-opacity="0" stop-color="#f0c7b1" offset=".9"/></radialGradient><radialGradient id="B" cx="100" cy="54" r="37" xlink:href="#P"><stop stop-opacity=".5" stop-color="#ffe4d6" offset="0"/><stop stop-opacity="0" stop-color="#f0c7b1" offset=".9"/></radialGradient><linearGradient id="C" x1="100" y1="142" x2="100" y2="139" xlink:href="#P"><stop stop-color="#e8b9a0" offset=".1"/><stop stop-color="#e1ac8f" offset="1"/></linearGradient><radialGradient id="D" cx="129.041" cy="83.945" r="15.117" gradientTransform="matrix(-0.9945 0.1042 0.1042 0.9945 192.8281 -12.4633)" xlink:href="#P"><stop stop-color="#fff" offset="0"/><stop stop-color="#fcfdfd" offset=".315"/><stop stop-color="#f4f7f8" offset=".504"/><stop stop-color="#e5ecef" offset=".66"/><stop stop-color="#d8e2e7" offset=".76"/></radialGradient><radialGradient id="E" cx="128.643" cy="83.986" r="15.116" gradientTransform="matrix(0.9945 0.1042 -0.1042 0.9945 7.1738 -12.4633)" xlink:href="#P"><stop stop-color="#fff" offset="0"/><stop stop-color="#fcfdfd" offset=".316"/><stop stop-color="#f4f7f8" offset=".505"/><stop stop-color="#e5ecef" offset=".661"/><stop stop-color="#d8e2e7" offset=".76"/></radialGradient><radialGradient id="F" cx="121.986" cy="82.496" fx="133.239" fy="82.527" r="16.003" gradientTransform="matrix(0.9998 0.0208 0.0166 -0.7998 -45.3195 145.9395)" xlink:href="#P"><stop stop-color="#e1ac8f" offset="0"/><stop stop-opacity=".3" stop-color="#e1ac8f" offset=".7"/><stop stop-opacity="0" stop-color="#f0c7b1" offset="1"/></radialGradient><radialGradient id="G" cx="68.931" cy="105.995" r="29.524" gradientTransform="matrix(1.0336,0,0,1.0336,-1.6796,1.3127)" xlink:href="#P"><stop stop-opacity="0" offset=".95"/><stop stop-opacity=".2" offset="1"/></radialGradient><radialGradient id="H" cx="121.587" cy="82.496" fx="132.839" fy="82.527" r="16.003" gradientTransform="matrix(-0.9998 0.0208 -0.0166 -0.7998 244.5208 145.9478)" xlink:href="#P"><stop stop-color="#e1ac8f" offset="0"/><stop stop-opacity=".3" stop-color="#e1ac8f" offset=".7"/><stop stop-opacity="0" stop-color="#f0c7b1" offset="1"/></radialGradient><radialGradient id="I" cx="69.316" cy="105.995" r="29.524" gradientTransform="matrix(-1.0336,0,0,1.0336,201.6796,1.3127)" xlink:href="#P"><stop stop-opacity="0" offset=".95"/><stop stop-opacity=".2" offset="1"/></radialGradient><linearGradient id="J" x1="100" y1="171" x2="100" y2="128" xlink:href="#P"><stop stop-opacity=".8" stop-color="#e1ac8f" offset="0"/><stop stop-color="#c27b55" offset=".7"/></linearGradient><path id="K" d="M195.417 199.778c-2.196-4.746-8.195-11.779-14.86-13.722-8.239-2.403-26.837-5.308-33.733-6.923-5.528-1.296-16.662-11.294-20.564-14.65-.7-.6-1.273-1.839-1.287-2.76-.139-10.864 4.195-39.724 4.195-39.724H100 70.833s4.334 28.859 4.193 39.724c-.011.921-.587 2.16-1.285 2.76-3.902 3.356-15.036 13.354-20.564 14.65-6.897 1.615-25.495 4.619-33.733 7.022-6.667 1.942-12.664 8.876-14.86 13.622-3.708 8.008-4.584 22.5-4.584 35h100 100c0-12.499-.877-26.991-4.583-34.999z"/><path id="L" d="M144.004 126.997c-5.003 10.225-20.047 28.437-30.801 33.266-5.366 2.412-21.089 2.53-26.401 0-10.646-5.067-25.765-23.057-30.801-33.266-5.613-11.374-14.851-48.553-14.863-48.607a62.25 62.25 0 0 1-2.004-15.623c-.052-34 27.154-61.598 60.772-61.65s60.913 27.457 60.963 61.456c.009 5.4-.669 10.638-1.952 15.631-.016.052-9.317 37.355-14.913 48.793z"/><path id="M" d="M82.5 130.299s12.532 1.486 16.718 1.499c4.553.012 19.282-1.499 19.282-1.499-4.258 3.534-8.943 6.932-19.555 6.999-9.492.061-11.924-3.386-16.445-6.999z"/><path id="N" d="M61.752 82.523c-.506-2.285 5.191-3.973 12.711-3.051s12.738 5.524 12.052 7.844c-.38 1.286-10.639 3.245-14.253 2.847-3.664-.405-9.288-2.123-10.51-7.64z"/><path id="O" d="M137.849 82.523c.506-2.285-5.191-3.973-12.711-3.051s-12.738 5.524-12.052 7.844c.38 1.286 10.639 3.245 14.253 2.847 3.664-.405 9.288-2.123 10.51-7.64z"/><linearGradient id="P" gradientUnits="userSpaceOnUse"/></defs></svg>